<svg xmlns="http://www.w3.org/2000/svg" viewBox="0 0 449.4063 569.3633">
  <defs>
    <style>
      .cls-1 {
        fill: #00a79d;
      }

      .cls-2 {
        fill: #231f20;
      }

      .cls-3 {
        fill: #fff;
      }

      .cls-4 {
        fill: #dcddde;
      }
    </style>
  </defs>
  <g id="Layer_2" data-name="Layer 2">
    <g id="Capa_1" data-name="Capa 1">
      <g>
        <g>
          <g>
            <circle class="cls-1" cx="40.5406" cy="427.91278" r="34.0409" transform="matrix(0.98709, -0.16018, 0.16018, 0.98709, -68.0205, 12.01931)"/>
            <path class="cls-2" d="M40.5411,468.4541a40.541,40.541,0,1,1,40.54-40.541A40.58685,40.58685,0,0,1,40.5411,468.4541Zm0-68.082a27.541,27.541,0,1,0,27.54,27.541A27.57177,27.57177,0,0,0,40.5411,400.3721Z"/>
          </g>
          <g>
            <path class="cls-3" d="M290.3712,6.4998H124.7382A81.8518,81.8518,0,0,0,42.8864,88.3516v392.66a81.8518,81.8518,0,0,0,81.8518,81.8518H361.0346a81.8518,81.8518,0,0,0,81.8518-81.8518V159.0153Z"/>
            <path class="cls-2" d="M361.0342,569.3633H124.7383a88.45214,88.45214,0,0,1-88.3515-88.3516V88.3516A88.45182,88.45182,0,0,1,124.7383,0H290.3711a6.50187,6.50187,0,0,1,4.5967,1.9038L447.4825,154.419a6.49648,6.49648,0,0,1,1.9043,4.5962V481.0117A88.45244,88.45244,0,0,1,361.0342,569.3633ZM124.7383,13A75.43713,75.43713,0,0,0,49.3868,88.3516V481.0117a75.43706,75.43706,0,0,0,75.3515,75.3516H361.0342a75.43736,75.43736,0,0,0,75.3526-75.3516V161.7075L287.6787,13Z"/>
          </g>
          <g>
            <path class="cls-4" d="M290.3712,6.4998,442.8864,159.0153H322.8966a32.52538,32.52538,0,0,1-32.5254-32.5254Z"/>
            <path class="cls-2" d="M442.9063,165.5152H322.8965a39.06983,39.06983,0,0,1-39.0254-39.0254V6.5a6.49965,6.49965,0,0,1,11.0957-4.5962L447.1885,154.125a6.50009,6.50009,0,0,1-4.2822,11.3902ZM296.8711,22.1924V126.4898a26.05469,26.05469,0,0,0,26.0254,26.0254H427.1944Z"/>
          </g>
          <g>
            <path class="cls-1" d="M43.6354,231.6181A36.6101,36.6101,0,0,0,7.0253,268.2282V421.5347h.6708a36.616,36.616,0,0,1,35.9393-29.6405H412.313V231.6181Z"/>
            <path class="cls-2" d="M7.6963,428.0352H7.0254a6.50007,6.50007,0,0,1-6.5-6.5V268.2285a43.159,43.159,0,0,1,43.1104-43.1103H412.3125a6.49994,6.49994,0,0,1,6.5,6.5V391.8946a6.5,6.5,0,0,1-6.5,6.5H43.6358a30.127,30.127,0,0,0-29.5567,24.371A6.501,6.501,0,0,1,7.6963,428.0352Zm35.9395-189.917a30.14458,30.14458,0,0,0-30.1104,30.1103V397.666a43.10344,43.10344,0,0,1,30.1104-12.2714H405.8125V238.1182Z"/>
          </g>
        </g>
        <g>
          <path class="cls-3" d="M86.3858,272.4307a4.91345,4.91345,0,0,1,4.7998-4.9238h25.1113c27.0801,0,45.7901,18.5869,45.7901,42.8369v.2461c0,24.249-18.71,43.082-45.7901,43.082H91.1856a4.91345,4.91345,0,0,1-4.7998-4.9238Zm29.9111,72.2558c21.7871,0,35.6973-14.7714,35.6973-33.8505v-.2461c0-19.0801-13.9102-34.0977-35.6973-34.0977H96.1094v68.1943Z"/>
          <path class="cls-3" d="M178.833,310.836v-.2461c0-23.7578,17.8487-44.5606,44.0674-44.5606,26.2188,0,43.8213,20.5567,43.8213,44.3145v.2461c0,23.7568-17.8486,44.5595-44.0674,44.5595C196.4356,355.1494,178.833,334.5928,178.833,310.836Zm77.795,0v-.2461c0-19.5723-14.2793-35.5743-33.9737-35.5743-19.6953,0-33.7275,15.7559-33.7275,35.3282v.2461c0,19.5713,14.2783,35.5732,33.9736,35.5732C242.5948,346.1631,256.628,330.4072,256.628,310.836Z"/>
          <path class="cls-3" d="M283.4668,310.836v-.2461c0-24.3731,18.2178-44.5606,43.5752-44.5606,13.9092,0,22.7715,4.5547,30.7725,11.2022a5.32453,5.32453,0,0,1,1.9697,3.9384,4.99774,4.99774,0,0,1-4.9238,4.8008,5.81414,5.81414,0,0,1-3.2002-1.1074c-6.6465-5.9092-14.1553-9.8477-24.7412-9.8477-19.0801,0-33.3584,15.5098-33.3584,35.3282v.2461c0,19.9404,14.4023,35.5732,33.3584,35.5732,10.709,0,18.2178-3.6924,25.6025-10.4629a4.47177,4.47177,0,0,1,3.0781-1.3535,4.8408,4.8408,0,0,1,4.6768,4.6768,4.5982,4.5982,0,0,1-1.5996,3.4472c-8.4932,7.7549-17.8486,12.6787-32.0039,12.6787C301.8077,355.1494,283.4668,335.5772,283.4668,310.836Z"/>
        </g>
      </g>
    </g>
  </g>
</svg>
