<svg xmlns="http://www.w3.org/2000/svg" viewBox="0 0 449.4062 569.3633">
  <defs>
    <style>
      .cls-1 {
        fill: #00a79d;
      }

      .cls-2 {
        fill: #231f20;
      }

      .cls-3 {
        fill: #fff;
      }

      .cls-4 {
        fill: #dcddde;
      }
    </style>
  </defs>
  <g id="Layer_2" data-name="Layer 2">
    <g id="Capa_1" data-name="Capa 1">
      <g>
        <g>
          <g>
            <circle class="cls-1" cx="40.54087" cy="427.91288" r="34.04096" transform="translate(-290.70595 153.99951) rotate(-45)"/>
            <path class="cls-2" d="M40.541,468.4541a40.54105,40.54105,0,1,1,40.541-40.541A40.58677,40.58677,0,0,1,40.541,468.4541Zm0-68.0821a27.54105,27.54105,0,1,0,27.541,27.5411A27.57171,27.57171,0,0,0,40.541,400.372Z"/>
          </g>
          <g>
            <path class="cls-3" d="M290.3715,6.4999H124.7385A81.8518,81.8518,0,0,0,42.8867,88.3517v392.66a81.8518,81.8518,0,0,0,81.8518,81.8518H361.0349a81.8518,81.8518,0,0,0,81.8518-81.8518V159.0154Z"/>
            <path class="cls-2" d="M361.0351,569.3633H124.7382a88.45214,88.45214,0,0,1-88.3515-88.3516V88.3515A88.45205,88.45205,0,0,1,124.7382,0H290.371a6.50308,6.50308,0,0,1,4.5967,1.9033L447.4824,154.4199a6.49637,6.49637,0,0,1,1.9043,4.5957V481.0117A88.45223,88.45223,0,0,1,361.0351,569.3633ZM124.7382,13A75.437,75.437,0,0,0,49.3867,88.3515V481.0117a75.43713,75.43713,0,0,0,75.3515,75.3516H361.0351a75.43721,75.43721,0,0,0,75.3516-75.3516V161.708L287.6787,13Z"/>
          </g>
          <g>
            <path class="cls-4" d="M290.3715,6.4999,442.8867,159.0154H322.8969A32.52538,32.52538,0,0,1,290.3715,126.49Z"/>
            <path class="cls-2" d="M442.9062,165.5156a.12409.12409,0,0,1-.0195,0H322.8964a39.06976,39.06976,0,0,1-39.0254-39.0254V6.5a6.49971,6.49971,0,0,1,11.0958-4.5957L447.1884,154.125a6.50037,6.50037,0,0,1-4.2822,11.3906ZM296.871,22.1924V126.4902a26.05475,26.05475,0,0,0,26.0254,26.0254H427.1943Z"/>
          </g>
          <g>
            <path class="cls-1" d="M43.6357,231.6181A36.61012,36.61012,0,0,0,7.0256,268.2283V421.5348h.6707a36.61618,36.61618,0,0,1,35.9394-29.6405H412.3133V231.6181Z"/>
            <path class="cls-2" d="M7.6962,428.0351H7.0253a6.5,6.5,0,0,1-6.5-6.5V268.2285a43.15878,43.15878,0,0,1,43.1104-43.1104H412.3134a6.5,6.5,0,0,1,6.5,6.5V391.8945a6.49994,6.49994,0,0,1-6.5,6.5H43.6357a30.12936,30.12936,0,0,0-29.5566,24.3711A6.50012,6.50012,0,0,1,7.6962,428.0351Zm35.9395-189.917a30.14506,30.14506,0,0,0-30.1104,30.1104V397.667a43.09573,43.09573,0,0,1,30.1104-12.2725H405.8134V238.1181Z"/>
          </g>
        </g>
        <g>
          <path class="cls-3" d="M45.1796,273.0459a4.9136,4.9136,0,0,1,4.7998-4.9239H75.0908c27.0801,0,45.79,18.587,45.79,42.837v.2461c0,24.249-18.7099,43.082-45.79,43.082H49.9794a4.91352,4.91352,0,0,1-4.7998-4.9238Zm29.9112,72.2558c21.7871,0,35.6972-14.7715,35.6972-33.8506v-.246c0-19.0801-13.9101-34.0967-35.6972-34.0967H54.9033v68.1933Z"/>
          <path class="cls-3" d="M137.6269,311.4511v-.246c0-23.7569,17.8486-44.5596,44.0674-44.5596,26.2187,0,43.8213,20.5556,43.8213,44.3135v.2461c0,23.7568-17.8487,44.5595-44.0674,44.5595C155.2294,355.7646,137.6269,335.208,137.6269,311.4511Zm77.7949,0v-.246c0-19.5723-14.2793-35.5743-33.9736-35.5743-19.6953,0-33.7275,15.7559-33.7275,35.3282v.2461c0,19.5712,14.2783,35.5732,33.9736,35.5732C201.3886,346.7783,215.4218,331.0224,215.4218,311.4511Z"/>
          <path class="cls-3" d="M242.2607,311.4511v-.246c0-24.3731,18.2178-44.5596,43.5752-44.5596,13.9092,0,22.7715,4.5537,30.7734,11.2012a5.32864,5.32864,0,0,1,1.9688,3.9384,4.99781,4.99781,0,0,1-4.9238,4.8008,5.81355,5.81355,0,0,1-3.2002-1.1074c-6.6465-5.9082-14.1553-9.8477-24.7413-9.8477-19.08,0-33.3584,15.5098-33.3584,35.3282v.2461c0,19.9404,14.4024,35.5732,33.3584,35.5732,10.709,0,18.2178-3.6924,25.6026-10.4629a4.47157,4.47157,0,0,1,3.0781-1.3535,4.84086,4.84086,0,0,1,4.6768,4.6767,4.59826,4.59826,0,0,1-1.5996,3.4473c-8.4932,7.7549-17.8487,12.6787-32.0039,12.6787C260.6015,355.7646,242.2607,336.1924,242.2607,311.4511Z"/>
          <path class="cls-3" d="M332.9853,346.9013l28.8037-36.5586-27.3271-34.4658a5.935,5.935,0,0,1-1.5996-3.6924,4.78185,4.78185,0,0,1,4.7998-4.6777c1.9697,0,3.0781.9844,4.3086,2.4619l25.9726,33.7276,25.6035-33.3584c1.3535-1.6006,2.585-2.8311,4.6768-2.8311a4.51976,4.51976,0,0,1,4.4316,4.5547,5.29066,5.29066,0,0,1-1.3535,3.4463l-27.4502,34.7119,28.4346,36.3125a5.28788,5.28788,0,0,1,1.6006,3.5693,4.80683,4.80683,0,0,1-4.8008,4.8008c-1.9697,0-3.0772-.9844-4.3086-2.4619l-27.2031-35.3271-26.834,34.958c-1.3545,1.6006-2.585,2.831-4.8008,2.831a4.49953,4.49953,0,0,1-4.3086-4.5547A5.2888,5.2888,0,0,1,332.9853,346.9013Z"/>
        </g>
      </g>
    </g>
  </g>
</svg>
