<svg xmlns="http://www.w3.org/2000/svg" viewBox="0 0 449.40679 569.36326">
  <defs>
    <style>
      .cls-1 {
        fill: #00a79d;
      }

      .cls-2 {
        fill: #231f20;
      }

      .cls-3 {
        fill: #fff;
      }

      .cls-4 {
        fill: #dcddde;
      }
    </style>
  </defs>
  <g id="Layer_2" data-name="Layer 2">
    <g id="Capa_1" data-name="Capa 1">
      <g>
        <g>
          <g>
            <circle class="cls-1" cx="40.54103" cy="427.91266" r="34.04091"/>
            <path class="cls-2" d="M40.54111,468.45316a40.54055,40.54055,0,1,1,40.541-40.5401A40.58666,40.58666,0,0,1,40.54111,468.45316Zm0-68.0811a27.54055,27.54055,0,1,0,27.541,27.541A27.5721,27.5721,0,0,0,40.54111,400.37206Z"/>
          </g>
          <g>
            <path class="cls-3" d="M290.37159,6.49966H124.7387a81.8518,81.8518,0,0,0-81.8518,81.8518v392.66a81.8518,81.8518,0,0,0,81.8518,81.8518H361.035a81.85182,81.85182,0,0,0,81.8519-81.8518V159.01526Z"/>
            <path class="cls-2" d="M361.03519,569.36326H124.7388a88.45216,88.45216,0,0,1-88.352-88.3515V88.35156A88.45216,88.45216,0,0,1,124.7388.00006H290.37159a6.49944,6.49944,0,0,1,4.5962,1.9033L447.48289,154.42a6.49976,6.49976,0,0,1,1.9039,4.5957v321.9961A88.45182,88.45182,0,0,1,361.03519,569.36326ZM124.7388,13.00006a75.43715,75.43715,0,0,0-75.352,75.3515v392.6602a75.43715,75.43715,0,0,0,75.352,75.3515H361.03519a75.43713,75.43713,0,0,0,75.3516-75.3515V161.70806l-148.7076-148.708Z"/>
          </g>
          <g>
            <path class="cls-4" d="M290.37159,6.49966l152.5153,152.5156H322.89711a32.52549,32.52549,0,0,1-32.52552-32.5255Z"/>
            <path class="cls-2" d="M442.90679,165.51566H322.897a39.07,39.07,0,0,1-39.0254-39.0264V6.50006a6.49994,6.49994,0,0,1,11.0962-4.5957L447.189,154.126a6.49975,6.49975,0,0,1-4.2822,11.3897ZM296.87159,22.19236v104.2969a26.05554,26.05554,0,0,0,26.0254,26.0264h104.2974Z"/>
          </g>
          <g>
            <path class="cls-1" d="M43.6358,231.618a36.6101,36.6101,0,0,0-36.6101,36.6101v153.3065h.6708a36.61608,36.61608,0,0,1,35.9393-29.6405H412.31339V231.618Z"/>
            <path class="cls-2" d="M7.6963,428.03416H7.0259a6.5,6.5,0,0,1-6.5-6.5V268.22856a43.15868,43.15868,0,0,1,43.1099-43.1104H412.31349a6.5,6.5,0,0,1,6.5,6.5v160.2764a6.5,6.5,0,0,1-6.5,6.5H43.6358a30.12941,30.12941,0,0,0-29.5571,24.3701A6.49958,6.49958,0,0,1,7.6963,428.03416Zm35.9395-189.916a30.1445,30.1445,0,0,0-30.1099,30.1104v129.4375a43.09364,43.09364,0,0,1,30.1099-12.2715H405.81349V238.11816Z"/>
          </g>
        </g>
        <g>
          <path class="cls-3" d="M88.523,271.99026a4.86269,4.86269,0,1,1,9.7246,0v33.9736h49.72951v-33.9736a4.86244,4.86244,0,1,1,9.72409,0v77.5478a4.86244,4.86244,0,1,1-9.72409,0v-34.4658H98.2476v34.4658a4.86269,4.86269,0,1,1-9.7246,0Z"/>
          <path class="cls-3" d="M204.85011,276.668H179.8623a4.51934,4.51934,0,0,1-4.5546-4.4316,4.625,4.625,0,0,1,4.5546-4.5547h59.82281a4.62511,4.62511,0,0,1,4.55468,4.5547,4.51942,4.51942,0,0,1-4.55468,4.4316H214.69729v72.8701a4.92359,4.92359,0,1,1-9.84718,0Z"/>
          <path class="cls-3" d="M261.84529,272.11326a4.88844,4.88844,0,0,1,4.8007-4.8007h1.1079a5.32914,5.32914,0,0,1,4.55422,2.5849l30.77348,46.2832,30.7729-46.2832a5.21958,5.21958,0,0,1,4.5547-2.5849h1.1074a4.88844,4.88844,0,0,1,4.8008,4.8007v77.4248a4.91432,4.91432,0,0,1-4.8008,4.9239,5.01953,5.01953,0,0,1-4.9233-4.9239v-64.2539l-27.5728,40.4971a4.76341,4.76341,0,0,1-4.062,2.4619,4.95543,4.95543,0,0,1-4.1855-2.4619l-27.4497-40.374v64.2539a4.7394,4.7394,0,1,1-9.478,0Z"/>
        </g>
      </g>
    </g>
  </g>
</svg>
