<svg xmlns="http://www.w3.org/2000/svg" viewBox="0 0 449.40732 569.36387">
  <defs>
    <style>
      .cls-1 {
        fill: #2bb673;
      }

      .cls-2 {
        fill: #231f20;
      }

      .cls-3 {
        fill: #fff;
      }

      .cls-4 {
        fill: #dcddde;
      }
    </style>
  </defs>
  <g id="Layer_2" data-name="Layer 2">
    <g id="Capa_1" data-name="Capa 1">
      <g>
        <g>
          <g>
            <circle class="cls-1" cx="40.54122" cy="427.9131" r="34.04094" transform="translate(-290.706 153.99982) rotate(-45)"/>
            <path class="cls-2" d="M40.54112,468.45417a40.541,40.541,0,1,1,40.541-40.541A40.58685,40.58685,0,0,1,40.54112,468.45417Zm0-68.082a27.541,27.541,0,1,0,27.541,27.541A27.57242,27.57242,0,0,0,40.54112,400.37217Z"/>
          </g>
          <g>
            <path class="cls-3" d="M290.37182,6.50007H124.7389A81.85182,81.85182,0,0,0,42.887,88.35187V481.012a81.85182,81.85182,0,0,0,81.8519,81.8518H361.03522A81.8518,81.8518,0,0,0,442.887,481.012V159.01567Z"/>
            <path class="cls-2" d="M361.03522,569.36387H124.7388a88.45193,88.45193,0,0,1-88.3515-88.3521V88.35217A88.45193,88.45193,0,0,1,124.7388.00007H290.37162a6.49828,6.49828,0,0,1,4.5962,1.9038l152.5156,152.5156a6.5011,6.5011,0,0,1,1.9039,4.5962v321.9961A88.45244,88.45244,0,0,1,361.03522,569.36387ZM124.7388,13.00007a75.43717,75.43717,0,0,0-75.3515,75.3521v392.6596a75.43717,75.43717,0,0,0,75.3515,75.3521H361.03522a75.43736,75.43736,0,0,0,75.3521-75.3521V161.70807l-148.7081-148.708Z"/>
          </g>
          <g>
            <path class="cls-4" d="M290.37182,6.50007,442.887,159.01567H322.89732a32.52548,32.52548,0,0,1-32.5255-32.5255Z"/>
            <path class="cls-2" d="M442.90732,165.51567H322.897a39.06976,39.06976,0,0,1-39.0254-39.0254V6.50007a6.49994,6.49994,0,0,1,11.0962-4.5962L447.189,154.12507a6.50006,6.50006,0,0,1-4.2817,11.3906ZM296.87162,22.19247v104.2978a26.05469,26.05469,0,0,0,26.0254,26.0254h104.2979Z"/>
          </g>
          <g>
            <path class="cls-1" d="M43.636,231.61837a36.6101,36.6101,0,0,0-36.6101,36.6101V421.535h.6708a36.616,36.616,0,0,1,35.9393-29.6405H412.31362V231.61837Z"/>
            <path class="cls-2" d="M7.6968,428.03527H7.0259a6.50008,6.50008,0,0,1-6.5-6.5V268.22857a43.15891,43.15891,0,0,1,43.1099-43.1103H412.31352a6.49994,6.49994,0,0,1,6.5,6.5v160.2763a6.49994,6.49994,0,0,1-6.5,6.5H43.6358a30.12871,30.12871,0,0,0-29.55668,24.3711A6.5,6.5,0,0,1,7.6968,428.03527Zm35.939-189.917a30.14416,30.14416,0,0,0-30.1099,30.1103v129.438a43.09319,43.09319,0,0,1,30.1099-12.272H405.81352V238.11827Z"/>
          </g>
        </g>
        <g>
          <path class="cls-3" d="M73.98494,342.15387a4.788,4.788,0,0,1,3.4463-8.1245,4.477,4.477,0,0,1,3.4467,1.7236c4.6773,6.4009,9.7242,9.7242,17.72509,9.7242,9.7247,0,16.86383-7.0161,16.86383-20.6797v-53.4219a4.93837,4.93837,0,0,1,4.92377-4.9238,4.83442,4.83442,0,0,1,4.80083,4.9238v53.2988c0,10.0938-2.9546,17.7256-7.87793,22.6494-4.8008,4.6773-11.32467,7.1392-18.9565,7.1392A28.95285,28.95285,0,0,1,73.98494,342.15387Z"/>
          <path class="cls-3" d="M151.10252,271.68317a4.9143,4.9143,0,0,1,4.8008-4.9238H183.353c19.4487,0,32.25,10.3399,32.25,27.3267v.2461c0,18.5874-15.5093,28.1884-33.8501,28.1884h-20.9258v26.0957a4.86268,4.86268,0,1,1-9.7246,0Zm31.0196,41.9746c14.2788,0,23.6337-7.6318,23.6337-18.956v-.2466c0-12.3091-9.2319-18.71-23.1416-18.71h-21.7871v37.9126Z"/>
          <path class="cls-3" d="M304.34812,310.39557v-.2461c0-23.6338,17.3564-44.5595,43.2055-44.5595,13.0479,0,21.5415,3.4467,29.4195,9.2319a4.925,4.925,0,0,1-2.8311,8.8628,5.13635,5.13635,0,0,1-3.0776-1.231c-6.1548-4.6772-13.0479-7.8779-23.8799-7.8779-19.0796,0-32.7427,16.125-32.7427,35.3276v.2461c0,20.5567,13.1709,35.8199,34.0967,35.8199a40.573,40.573,0,0,0,24.8647-8.6163v-21.4179h-23.1416a4.37034,4.37034,0,0,1,0-8.7398h27.6958a4.91432,4.91432,0,0,1,4.8008,4.9239V338.338a6.94255,6.94255,0,0,1-3.3232,5.9082,52.52014,52.52014,0,0,1-31.2656,10.4629C321.08882,354.70907,304.34812,335.01427,304.34812,310.39557Z"/>
          <path class="cls-3" d="M233.02587,348.30822v-76.3174a4.9143,4.9143,0,0,1,4.8008-4.9238h53.5454a4.43165,4.43165,0,0,1,0,8.8633h-48.6216v29.4189h43.082a4.493,4.493,0,0,1,4.4317,4.4307,4.41338,4.41338,0,0,1-4.4317,4.4316h-43.082v30.1582h49.2368a4.43115,4.43115,0,1,1,0,8.8623h-54.1606A4.9143,4.9143,0,0,1,233.02587,348.30822Z"/>
        </g>
      </g>
    </g>
  </g>
</svg>
