<svg xmlns="http://www.w3.org/2000/svg" viewBox="0 0 449.40679 569.36387">
  <defs>
    <style>
      .cls-1 {
        fill: #00a0dc;
      }

      .cls-2 {
        fill: #231f20;
      }

      .cls-3 {
        fill: #fff;
      }

      .cls-4 {
        fill: #dcddde;
      }
    </style>
  </defs>
  <g id="Layer_2" data-name="Layer 2">
    <g id="Capa_1" data-name="Capa 1">
      <g>
        <g>
          <g>
            <circle class="cls-1" cx="40.54103" cy="427.9131" r="34.04094" transform="translate(-318.104 191.00185) rotate(-51.1402)"/>
            <path class="cls-2" d="M40.54111,468.45417a40.541,40.541,0,1,1,40.541-40.541A40.58685,40.58685,0,0,1,40.54111,468.45417Zm0-68.082a27.541,27.541,0,1,0,27.541,27.541A27.57242,27.57242,0,0,0,40.54111,400.37217Z"/>
          </g>
          <g>
            <path class="cls-3" d="M290.37159,6.50007H124.7387a81.8518,81.8518,0,0,0-81.8518,81.8518V481.012a81.8518,81.8518,0,0,0,81.8518,81.8518H361.035a81.85182,81.85182,0,0,0,81.8519-81.8518V159.01567Z"/>
            <path class="cls-2" d="M361.03519,569.36387H124.7388a88.45235,88.45235,0,0,1-88.352-88.3521V88.35217A88.45235,88.45235,0,0,1,124.7388.00007H290.37159a6.49824,6.49824,0,0,1,4.5962,1.9038l152.5151,152.5156a6.5011,6.5011,0,0,1,1.9039,4.5962v321.9961A88.452,88.452,0,0,1,361.03519,569.36387ZM124.7388,13.00007a75.43728,75.43728,0,0,0-75.352,75.3521v392.6596a75.43728,75.43728,0,0,0,75.352,75.3521H361.03519a75.43726,75.43726,0,0,0,75.3516-75.3521V161.70807l-148.7076-148.708Z"/>
          </g>
          <g>
            <path class="cls-4" d="M290.37159,6.50007l152.5153,152.5156H322.89711a32.52549,32.52549,0,0,1-32.52552-32.5255Z"/>
            <path class="cls-2" d="M442.90679,165.51567H322.897a39.06976,39.06976,0,0,1-39.0254-39.0254V6.50007a6.49994,6.49994,0,0,1,11.0962-4.5962L447.189,154.12557a6.5,6.5,0,0,1-4.2822,11.3901ZM296.87159,22.19247v104.2978a26.05469,26.05469,0,0,0,26.0254,26.0254h104.2974Z"/>
          </g>
          <g>
            <path class="cls-1" d="M43.6358,231.61837a36.6101,36.6101,0,0,0-36.6101,36.6101V421.535h.6708a36.61608,36.61608,0,0,1,35.9393-29.6405H412.31339V231.61837Z"/>
            <path class="cls-2" d="M7.6963,428.03527H7.0259a6.50007,6.50007,0,0,1-6.5-6.5V268.22857a43.15891,43.15891,0,0,1,43.1099-43.1103H412.31349a6.49994,6.49994,0,0,1,6.5,6.5v160.2763a6.49994,6.49994,0,0,1-6.5,6.5H43.6358a30.12991,30.12991,0,0,0-29.5571,24.3711A6.50016,6.50016,0,0,1,7.6963,428.03527Zm35.9395-189.917a30.14416,30.14416,0,0,0-30.1099,30.1103v129.438a43.09409,43.09409,0,0,1,30.1099-12.272H405.81349V238.11827Z"/>
          </g>
        </g>
        <g>
          <path class="cls-3" d="M90.6158,271.99077a4.91428,4.91428,0,0,1,4.8007-4.9238h27.4497c19.4488,0,32.25,10.3399,32.25,27.3267v.2461c0,18.5874-15.5092,28.1884-33.85,28.1884H100.3404v26.0957a4.86268,4.86268,0,1,1-9.7246,0Zm31.0195,41.9746c14.27881,0,23.63381-7.6318,23.63381-18.956v-.2466c0-12.3091-9.232-18.71-23.14161-18.71H100.3404v37.9126Z"/>
          <path class="cls-3" d="M172.8462,271.49867a4.88846,4.88846,0,0,1,4.8008-4.8008h1.354c2.2158,0,3.5698,1.1079,4.9238,2.831l52.31449,66.7163v-64.9926a4.7394,4.7394,0,1,1,9.478,0V349.047a4.36756,4.36756,0,0,1-4.4316,4.5542h-.4922c-2.0928,0-3.5698-1.231-5.0469-2.9541l-53.42229-68.3164V349.047a4.73945,4.73945,0,1,1-9.4781,0Z"/>
          <path class="cls-3" d="M266.27789,310.39557v-.2461c0-23.6338,17.3564-44.5595,43.2055-44.5595,13.0479,0,21.5415,3.4467,29.4195,9.2319a4.925,4.925,0,0,1-2.8311,8.8628,5.13635,5.13635,0,0,1-3.0776-1.231c-6.1543-4.6772-13.0479-7.8779-23.8799-7.8779-19.0796,0-32.7427,16.125-32.7427,35.3276v.2461c0,20.5567,13.1709,35.8199,34.0967,35.8199a40.573,40.573,0,0,0,24.8647-8.6163v-21.4179h-23.1416a4.37034,4.37034,0,0,1,0-8.7398h27.6958a4.91432,4.91432,0,0,1,4.8008,4.9239V338.338a6.94251,6.94251,0,0,1-3.3232,5.9082,52.52133,52.52133,0,0,1-31.2656,10.4629C283.01859,354.70907,266.27789,335.01427,266.27789,310.39557Z"/>
        </g>
      </g>
    </g>
  </g>
</svg>
