<svg xmlns="http://www.w3.org/2000/svg" viewBox="0 0 449.4062 569.3633">
  <defs>
    <style>
      .cls-1 {
        fill: #f7921e;
      }

      .cls-2 {
        fill: #231f20;
      }

      .cls-3 {
        fill: #fff;
      }

      .cls-4 {
        fill: #dcddde;
      }
    </style>
  </defs>
  <g id="Layer_2" data-name="Layer 2">
    <g id="Capa_1" data-name="Capa 1">
      <g>
        <g>
          <g>
            <circle class="cls-1" cx="40.54087" cy="427.91277" r="34.04096" transform="translate(-290.70588 153.99948) rotate(-45)"/>
            <path class="cls-2" d="M40.541,468.4541a40.541,40.541,0,1,1,40.541-40.541A40.58677,40.58677,0,0,1,40.541,468.4541Zm0-68.082a27.541,27.541,0,1,0,27.541,27.541A27.57169,27.57169,0,0,0,40.541,400.3721Z"/>
          </g>
          <g>
            <path class="cls-3" d="M290.3715,6.4998H124.7385A81.8518,81.8518,0,0,0,42.8867,88.3516v392.66a81.8518,81.8518,0,0,0,81.8518,81.8518H361.0349a81.8518,81.8518,0,0,0,81.8518-81.8518V159.0153Z"/>
            <path class="cls-2" d="M361.0351,569.3633H124.7382a88.45214,88.45214,0,0,1-88.3515-88.3516V88.3516A88.45182,88.45182,0,0,1,124.7382,0H290.371a6.50187,6.50187,0,0,1,4.5967,1.9038L447.4824,154.419a6.49648,6.49648,0,0,1,1.9043,4.5962V481.0117A88.45223,88.45223,0,0,1,361.0351,569.3633ZM124.7382,13A75.43713,75.43713,0,0,0,49.3867,88.3516V481.0117a75.43706,75.43706,0,0,0,75.3515,75.3516H361.0351a75.43715,75.43715,0,0,0,75.3516-75.3516V161.7075L287.6787,13Z"/>
          </g>
          <g>
            <path class="cls-4" d="M290.3715,6.4998,442.8867,159.0153H322.8969a32.52538,32.52538,0,0,1-32.5254-32.5254Z"/>
            <path class="cls-2" d="M442.9062,165.5152H322.8964a39.06983,39.06983,0,0,1-39.0254-39.0254V6.5a6.49971,6.49971,0,0,1,11.0958-4.5962L447.1884,154.125a6.50009,6.50009,0,0,1-4.2822,11.3902ZM296.871,22.1924V126.4898a26.05475,26.05475,0,0,0,26.0254,26.0254H427.1943Z"/>
          </g>
          <g>
            <path class="cls-1" d="M43.6357,231.6181A36.61,36.61,0,0,0,7.0256,268.2282V421.5347h.6707a36.61618,36.61618,0,0,1,35.9394-29.6405H412.3133V231.6181Z"/>
            <path class="cls-2" d="M7.6962,428.0352H7.0253a6.50007,6.50007,0,0,1-6.5-6.5V268.2285a43.159,43.159,0,0,1,43.1104-43.1103H412.3134a6.49994,6.49994,0,0,1,6.5,6.5V391.8946a6.5,6.5,0,0,1-6.5,6.5H43.6357a30.12937,30.12937,0,0,0-29.5566,24.371A6.50021,6.50021,0,0,1,7.6962,428.0352Zm35.9395-189.917a30.14465,30.14465,0,0,0-30.1104,30.1103V397.667a43.09564,43.09564,0,0,1,30.1104-12.2724H405.8134V238.1182Z"/>
          </g>
        </g>
        <g>
          <path class="cls-3" d="M105.0673,272.4307a4.91352,4.91352,0,0,1,4.7998-4.9238h27.4502c19.4483,0,32.25,10.3398,32.25,27.3271v.2461c0,18.5869-15.5097,28.1875-33.8505,28.1875H114.791v26.0957a4.86224,4.86224,0,1,1-9.7237,0Zm31.0186,41.9746c14.2793,0,23.6338-7.6318,23.6338-18.9561v-.2461c0-12.3095-9.2315-18.7109-23.1406-18.7109H114.791v37.9131Z"/>
          <path class="cls-3" d="M198.0673,272.4307a4.91352,4.91352,0,0,1,4.7998-4.9238h27.4502c19.4483,0,32.25,10.3398,32.25,27.3271v.2461c0,18.5869-15.5097,28.1875-33.8505,28.1875H207.791v26.0957a4.86224,4.86224,0,1,1-9.7237,0Zm31.0186,41.9746c14.2793,0,23.6338-7.6318,23.6338-18.9561v-.2461c0-12.3095-9.2315-18.7109-23.1406-18.7109H207.791v37.9131Z"/>
          <path class="cls-3" d="M313.14366,276.49315H288.15585a4.51934,4.51934,0,0,1-4.5546-4.4316,4.625,4.625,0,0,1,4.5546-4.5547h59.82281a4.62512,4.62512,0,0,1,4.55469,4.5547,4.51942,4.51942,0,0,1-4.55469,4.4316H322.99085v72.8701a4.9236,4.9236,0,1,1-9.84719,0Z"/>
        </g>
      </g>
    </g>
  </g>
</svg>
