<svg xmlns="http://www.w3.org/2000/svg" viewBox="0 0 449.40732 569.3638">
  <defs>
    <style>
      .cls-1 {
        fill: #ed1c24;
      }

      .cls-2 {
        fill: #231f20;
      }

      .cls-3 {
        fill: #fff;
      }

      .cls-4 {
        fill: #dcddde;
      }
    </style>
  </defs>
  <g id="Layer_2" data-name="Layer 2">
    <g id="Capa_1" data-name="Capa 1">
      <g>
        <g>
          <g>
            <circle class="cls-1" cx="40.54122" cy="427.91327" r="34.04092" transform="translate(-95.84741 20.29642) rotate(-13.0881)"/>
            <path class="cls-2" d="M40.54112,468.4546a40.541,40.541,0,1,1,40.541-40.541A40.58685,40.58685,0,0,1,40.54112,468.4546Zm0-68.082a27.541,27.541,0,1,0,27.541,27.541A27.5721,27.5721,0,0,0,40.54112,400.3726Z"/>
          </g>
          <g>
            <path class="cls-3" d="M290.37182,6.5003H124.7389A81.85182,81.85182,0,0,0,42.887,88.3521v392.66a81.85182,81.85182,0,0,0,81.8519,81.8518H361.03522a81.8518,81.8518,0,0,0,81.8518-81.8518V159.0158Z"/>
            <path class="cls-2" d="M361.03522,569.3638H124.7388a88.45182,88.45182,0,0,1-88.3515-88.3516V88.3521A88.4515,88.4515,0,0,1,124.7388.0005H290.37162a6.49828,6.49828,0,0,1,4.5962,1.9038l152.5156,152.5152a6.49988,6.49988,0,0,1,1.9039,4.5962V481.0122A88.45233,88.45233,0,0,1,361.03522,569.3638ZM124.7388,13.0005A75.43713,75.43713,0,0,0,49.3873,88.3521V481.0122a75.43706,75.43706,0,0,0,75.3515,75.3516H361.03522a75.43726,75.43726,0,0,0,75.3521-75.3516V161.708L287.67922,13.0005Z"/>
          </g>
          <g>
            <path class="cls-4" d="M290.37182,6.5003,442.887,159.0158H322.89732a32.5254,32.5254,0,0,1-32.5255-32.5254Z"/>
            <path class="cls-2" d="M442.90732,165.5157H322.897a39.06983,39.06983,0,0,1-39.0254-39.0254V6.5005a6.49994,6.49994,0,0,1,11.0962-4.5962l152.2217,152.2212a6.50009,6.50009,0,0,1-4.2822,11.3902ZM296.87162,22.1929V126.4903a26.05469,26.05469,0,0,0,26.0254,26.0254h104.2979Z"/>
          </g>
          <g>
            <path class="cls-1" d="M43.636,231.6186A36.6101,36.6101,0,0,0,7.0259,268.2287V421.5352h.6708A36.616,36.616,0,0,1,43.636,391.8947H412.31362V231.6186Z"/>
            <path class="cls-2" d="M7.6968,428.0357H7.0259a6.50008,6.50008,0,0,1-6.5-6.5V268.229a43.15891,43.15891,0,0,1,43.1099-43.1103H412.31352a6.49994,6.49994,0,0,1,6.5,6.5V391.8951a6.5,6.5,0,0,1-6.5,6.5H43.6358a30.12814,30.12814,0,0,0-29.55668,24.371A6.49951,6.49951,0,0,1,7.6968,428.0357Zm35.939-189.917A30.14416,30.14416,0,0,0,13.5259,268.229V397.6675a43.08964,43.08964,0,0,1,30.1099-12.2724H405.81352V238.1187Z"/>
          </g>
        </g>
        <g>
          <path class="cls-3" d="M111.34092,343.3326a4.377,4.377,0,0,1-1.8462-3.6924,4.70346,4.70346,0,0,1,4.6772-4.8008,4.30775,4.30775,0,0,1,2.9541,1.1074c8.1245,6.8936,16.2486,10.2168,27.2036,10.2168,11.5708,0,19.2027-6.1543,19.2027-14.6475v-.247c0-8.001-4.3086-12.5547-22.4029-16.3711-19.8178-4.3076-28.9267-10.709-28.9267-24.8643v-.247c0-13.5401,11.9399-23.5108,28.311-23.5108,11.3247,0,19.5718,2.832,27.4497,8.4942a5.00031,5.00031,0,0,1,2.0928,3.9384,4.67583,4.67583,0,0,1-4.6777,4.6778,4.54379,4.54379,0,0,1-2.8311-.8614c-7.2627-5.2929-14.2788-7.5088-22.2798-7.5088-11.2016,0-18.3408,6.1543-18.3408,13.9092v.2461c0,8.125,4.4312,12.6787,23.3877,16.7412,19.2021,4.1846,28.0649,11.2012,28.0649,24.3721v.2461c0,14.7715-12.309,24.3721-29.4189,24.3721C131.40482,354.9029,120.94192,350.9644,111.34092,343.3326Z"/>
          <path class="cls-3" d="M276.01716,310.83545v-.2461c0-23.6338,17.3564-44.5595,43.2055-44.5595,13.0479,0,21.5415,3.4467,29.4195,9.2319a4.925,4.925,0,0,1-2.8311,8.8628,5.13635,5.13635,0,0,1-3.0776-1.231c-6.1548-4.6772-13.0479-7.8779-23.8799-7.8779-19.0796,0-32.7427,16.125-32.7427,35.3276v.2461c0,20.5567,13.1709,35.8199,34.0967,35.8199a40.573,40.573,0,0,0,24.8647-8.6163v-21.4179h-23.1416a4.37034,4.37034,0,0,1,0-8.7398h27.6958a4.91432,4.91432,0,0,1,4.8008,4.9239v26.2187a6.94255,6.94255,0,0,1-3.3232,5.9082,52.52014,52.52014,0,0,1-31.2656,10.4629C292.75786,355.149,276.01716,335.45415,276.01716,310.83545Z"/>
          <path class="cls-3" d="M218.29976,350.4102,185.065,273.7237a4.511,4.511,0,0,1-.4922-2.2159,4.99772,4.99772,0,0,1,4.9233-4.8007,5.44364,5.44364,0,0,1,5.0469,3.6923l29.7886,71.3946,29.9116-71.6406c.8613-1.7227,2.5849-3.4463,4.8003-3.4463a4.78274,4.78274,0,0,1,4.8008,4.6777,5.10129,5.10129,0,0,1-.3692,1.9688l-33.3584,77.0566c-1.1074,2.4619-2.831,4.0615-5.6621,4.0615h-.4922A5.83813,5.83813,0,0,1,218.29976,350.4102Z"/>
        </g>
      </g>
    </g>
  </g>
</svg>
