<svg xmlns="http://www.w3.org/2000/svg" viewBox="0 0 449.4063 569.36332">
  <defs>
    <style>
      .cls-1 {
        fill: #2bb673;
      }

      .cls-2 {
        fill: #231f20;
      }

      .cls-3 {
        fill: #fff;
      }

      .cls-4 {
        fill: #dcddde;
      }
    </style>
  </defs>
  <g id="Layer_2" data-name="Layer 2">
    <g id="Capa_1" data-name="Capa 1">
      <g>
        <g>
          <g>
            <circle class="cls-1" cx="40.54077" cy="427.91282" r="34.04094"/>
            <path class="cls-2" d="M40.5411,468.45362a40.541,40.541,0,1,1,40.541-40.541A40.58685,40.58685,0,0,1,40.5411,468.45362Zm0-68.082a27.541,27.541,0,1,0,27.541,27.541A27.5721,27.5721,0,0,0,40.5411,400.37162Z"/>
          </g>
          <g>
            <path class="cls-3" d="M290.3714,6.49982H124.7384a81.8518,81.8518,0,0,0-81.8518,81.8518v392.66a81.8518,81.8518,0,0,0,81.8518,81.8518H361.0348a81.8518,81.8518,0,0,0,81.8518-81.8518V159.01542Z"/>
            <path class="cls-2" d="M361.0352,569.36332H124.7383a88.45182,88.45182,0,0,1-88.3515-88.3516V88.35162A88.45182,88.45182,0,0,1,124.7383,0H290.3711a6.50187,6.50187,0,0,1,4.5967,1.9038L447.4825,154.419a6.49648,6.49648,0,0,1,1.9043,4.5962v321.9965A88.4519,88.4519,0,0,1,361.0352,569.36332ZM124.7383,13a75.43713,75.43713,0,0,0-75.3515,75.3516v392.6601a75.43706,75.43706,0,0,0,75.3515,75.3516H361.0352a75.43715,75.43715,0,0,0,75.3516-75.3516V161.70762L287.6788,13Z"/>
          </g>
          <g>
            <path class="cls-4" d="M290.3714,6.49982l152.5152,152.5156H322.8968a32.52546,32.52546,0,0,1-32.5254-32.5255Z"/>
            <path class="cls-2" d="M442.9063,165.51522a.12409.12409,0,0,1-.0195,0H322.8965a39.06983,39.06983,0,0,1-39.0254-39.0254V6.5a6.49971,6.49971,0,0,1,11.0957-4.5962L447.1885,154.125a6.50009,6.50009,0,0,1-4.2822,11.3902ZM296.8711,22.19242v104.2974a26.05469,26.05469,0,0,0,26.0254,26.0254H427.1944Z"/>
          </g>
          <g>
            <path class="cls-1" d="M43.6356,231.61812a36.61,36.61,0,0,0-36.6101,36.6101v153.3065h.6707a36.61618,36.61618,0,0,1,35.9394-29.6405H412.3132V231.61812Z"/>
            <path class="cls-2" d="M7.6963,428.03472H7.0254a6.50007,6.50007,0,0,1-6.5-6.5V268.22812a43.15868,43.15868,0,0,1,43.1104-43.1099H412.3135a6.5,6.5,0,0,1,6.5,6.5v160.2759a6.5,6.5,0,0,1-6.5,6.5H43.6358a30.129,30.129,0,0,0-29.5567,24.3716A6.50056,6.50056,0,0,1,7.6963,428.03472Zm35.9395-189.9165a30.1445,30.1445,0,0,0-30.1104,30.1099v129.4384a43.09608,43.09608,0,0,1,30.1104-12.2724H405.8135V238.11822Z"/>
          </g>
        </g>
        <g>
          <path class="cls-3" d="M132.2237,277.59382H107.2364a4.51909,4.51909,0,0,1-4.5547-4.4312,4.62512,4.62512,0,0,1,4.5547-4.5547h59.8232a4.62425,4.62425,0,0,1,4.5537,4.5547,4.51821,4.51821,0,0,1-4.5537,4.4312H142.0713v72.8711a4.9238,4.9238,0,0,1-9.8476,0Z"/>
          <path class="cls-3" d="M186.5118,347.38722l28.8037-36.5581-27.3272-34.4663a5.93568,5.93568,0,0,1-1.5996-3.6928,4.78178,4.78178,0,0,1,4.7998-4.6773c1.9697,0,3.0781.9849,4.3086,2.4619l25.9727,33.7271,25.6035-33.3579c1.3535-1.6001,2.5849-2.8311,4.6767-2.8311a4.5194,4.5194,0,0,1,4.4317,4.5542,5.29193,5.29193,0,0,1-1.3535,3.4468l-27.4502,34.7119,28.4345,36.3125a5.289,5.289,0,0,1,1.6006,3.5698,4.80632,4.80632,0,0,1-4.8007,4.8003c-1.9698,0-3.0772-.9844-4.3086-2.4614l-27.2032-35.3276-26.834,34.958c-1.3544,1.6005-2.5849,2.831-4.8007,2.831a4.499,4.499,0,0,1-4.3086-4.5542A5.28807,5.28807,0,0,1,186.5118,347.38722Z"/>
          <path class="cls-3" d="M300.4991,277.59382H275.5118a4.51909,4.51909,0,0,1-4.5547-4.4312,4.62512,4.62512,0,0,1,4.5547-4.5547H335.335a4.62425,4.62425,0,0,1,4.5537,4.5547,4.51821,4.51821,0,0,1-4.5537,4.4312H310.3467v72.8711a4.9238,4.9238,0,0,1-9.8476,0Z"/>
        </g>
      </g>
    </g>
  </g>
</svg>
