<svg xmlns="http://www.w3.org/2000/svg" viewBox="0 0 449.4063 569.3633">
  <defs>
    <style>
      .cls-1 {
        fill: #2bb673;
      }

      .cls-2 {
        fill: #231f20;
      }

      .cls-3 {
        fill: #fff;
      }

      .cls-4 {
        fill: #dcddde;
      }
    </style>
  </defs>
  <g id="Layer_2" data-name="Layer 2">
    <g id="Capa_1" data-name="Capa 1">
      <g>
        <g>
          <g>
            <circle class="cls-1" cx="40.5406" cy="427.91288" r="34.0409" transform="matrix(0.98709, -0.16018, 0.16018, 0.98709, -68.02052, 12.01932)"/>
            <path class="cls-2" d="M40.5411,468.4541a40.54105,40.54105,0,1,1,40.54-40.541A40.58685,40.58685,0,0,1,40.5411,468.4541Zm0-68.0821a27.54105,27.54105,0,1,0,27.54,27.5411A27.5718,27.5718,0,0,0,40.5411,400.372Z"/>
          </g>
          <g>
            <path class="cls-3" d="M290.3712,6.4999H124.7382A81.8518,81.8518,0,0,0,42.8864,88.3517v392.66a81.8518,81.8518,0,0,0,81.8518,81.8518H361.0346a81.8518,81.8518,0,0,0,81.8518-81.8518V159.0154Z"/>
            <path class="cls-2" d="M361.0342,569.3633H124.7383a88.45214,88.45214,0,0,1-88.3515-88.3516V88.3515A88.45205,88.45205,0,0,1,124.7383,0H290.3711a6.50308,6.50308,0,0,1,4.5967,1.9033L447.4825,154.4199a6.49637,6.49637,0,0,1,1.9043,4.5957V481.0117A88.45244,88.45244,0,0,1,361.0342,569.3633ZM124.7383,13A75.437,75.437,0,0,0,49.3868,88.3515V481.0117a75.43713,75.43713,0,0,0,75.3515,75.3516H361.0342a75.43743,75.43743,0,0,0,75.3526-75.3516V161.708L287.6787,13Z"/>
          </g>
          <g>
            <path class="cls-4" d="M290.3712,6.4999,442.8864,159.0154H322.8966A32.52538,32.52538,0,0,1,290.3712,126.49Z"/>
            <path class="cls-2" d="M442.9063,165.5156a.12409.12409,0,0,1-.0195,0H322.8965a39.06976,39.06976,0,0,1-39.0254-39.0254V6.5a6.49965,6.49965,0,0,1,11.0957-4.5957L447.1885,154.125a6.50037,6.50037,0,0,1-4.2822,11.3906ZM296.8711,22.1924V126.4902a26.05469,26.05469,0,0,0,26.0254,26.0254H427.1944Z"/>
          </g>
          <g>
            <path class="cls-1" d="M43.6354,231.6181A36.61019,36.61019,0,0,0,7.0253,268.2283V421.5348h.6708a36.616,36.616,0,0,1,35.9393-29.6405H412.313V231.6181Z"/>
            <path class="cls-2" d="M7.6963,428.0351H7.0254a6.5,6.5,0,0,1-6.5-6.5V268.2285a43.15878,43.15878,0,0,1,43.1104-43.1104H412.3125a6.5,6.5,0,0,1,6.5,6.5V391.8945a6.49994,6.49994,0,0,1-6.5,6.5H43.6358a30.127,30.127,0,0,0-29.5567,24.3711A6.50091,6.50091,0,0,1,7.6963,428.0351Zm35.9395-189.917a30.145,30.145,0,0,0-30.1104,30.1104V397.666a43.10353,43.10353,0,0,1,30.1104-12.2715H405.8125V238.1181Z"/>
          </g>
        </g>
        <g>
          <path class="cls-3" d="M107.8057,346.9013l28.8037-36.5586-27.3271-34.4658a5.935,5.935,0,0,1-1.5996-3.6924,4.78185,4.78185,0,0,1,4.7998-4.6777c1.9697,0,3.0781.9844,4.3086,2.4619l25.9726,33.7276,25.6035-33.3584c1.3535-1.6006,2.585-2.8311,4.6768-2.8311a4.51976,4.51976,0,0,1,4.4316,4.5547,5.29066,5.29066,0,0,1-1.3535,3.4463l-27.4502,34.7119,28.4346,36.3125a5.28788,5.28788,0,0,1,1.6006,3.5693,4.80683,4.80683,0,0,1-4.8008,4.8008c-1.9697,0-3.0772-.9844-4.3086-2.4619l-27.2031-35.3271-26.834,34.958c-1.3545,1.6006-2.585,2.831-4.8008,2.831a4.49953,4.49953,0,0,1-4.3086-4.5547A5.2888,5.2888,0,0,1,107.8057,346.9013Z"/>
          <path class="cls-3" d="M199.0215,272.4306a4.86224,4.86224,0,1,1,9.7237,0v72.8711h44.6826a4.51855,4.51855,0,0,1,4.4316,4.5537,4.41332,4.41332,0,0,1-4.4316,4.4317H203.8213a4.91352,4.91352,0,0,1-4.7998-4.9238Z"/>
          <path class="cls-3" d="M272.1407,343.9472a4.37734,4.37734,0,0,1-1.8457-3.6923,4.70381,4.70381,0,0,1,4.6777-4.8008,4.31064,4.31064,0,0,1,2.9541,1.1074c8.124,6.8936,16.248,10.2168,27.2031,10.2168,11.5703,0,19.2022-6.1543,19.2022-14.6475v-.247c0-8.001-4.3076-12.5547-22.4024-16.3711-19.8183-4.3076-28.9267-10.709-28.9267-24.8643v-.2461c0-13.54,11.9394-23.5107,28.3115-23.5107,11.3242,0,19.5713,2.831,27.4492,8.4931a5.00207,5.00207,0,0,1,2.0928,3.9385,4.67585,4.67585,0,0,1-4.6778,4.6778,4.5435,4.5435,0,0,1-2.831-.8614c-7.2627-5.2929-14.2783-7.5088-22.2803-7.5088-11.2012,0-18.3408,6.1543-18.3408,13.9092v.2461c0,8.125,4.4316,12.6787,23.3877,16.7412,19.2031,4.1846,28.0654,11.2012,28.0654,24.3721v.2461c0,14.7715-12.3095,24.3721-29.4189,24.3721C292.2051,355.5176,281.7422,351.5791,272.1407,343.9472Z"/>
        </g>
      </g>
    </g>
  </g>
</svg>
