<svg xmlns="http://www.w3.org/2000/svg" viewBox="0 0 656.54 800.0796">
  <defs>
    <style>
      .cls-1 {
        fill: #548687;
      }

      .cls-2 {
        fill: #272525;
        opacity: 0.09;
      }

      .cls-3 {
        fill: #f9dd82;
      }

      .cls-4 {
        fill: #aa7355;
      }

      .cls-5 {
        fill: #bdb39b;
      }

      .cls-6 {
        fill: #434244;
      }

      .cls-7 {
        fill: #fffff5;
      }

      .cls-8 {
        fill: #bbbcbf;
      }

      .cls-9 {
        font-size: 50px;
        font-family: MyriadPro-Regular, Myriad Pro;
      }

      .cls-10 {
        letter-spacing: -0.07099em;
      }
    </style>
  </defs>
  <g id="Layer_2" data-name="Layer 2">
    <g id="Objects">
      <g>
        <rect class="cls-1" x="-27.31012" y="123.20605" width="743.81433" height="568.53626" transform="translate(-88.09569 719.81905) rotate(-85.60324)"/>
        <g>
          <path class="cls-2" d="M593.2178,157.1539,412.0876,180.155a217.39964,217.39964,0,0,1-87.5011-6.7278l-175.4849-50.421C114.1888,114.2959,90.65,80.2865,93.5379,42.7265l1.7399-22.628L656.1296,58.4227l-1.3854,28.7568C651.8563,124.7396,629.0518,153.8832,593.2178,157.1539Z"/>
          <path class="cls-1" d="M587.2065,151.8926,406.0763,174.8937a217.39964,217.39964,0,0,1-87.5011-6.7278l-175.4849-50.421c-34.9128-8.7103-58.4516-42.7197-55.5636-80.2797l1.7398-22.628L656.1296,58.4227l-1.7398,22.628C651.5018,118.6108,623.0406,148.6219,587.2065,151.8926Z"/>
        </g>
        <g>
          <path class="cls-3" d="M355.5127,307.2295a44.98551,44.98551,0,0,1-41.3566-48.246l8.2546-107.3575a44.93354,44.93354,0,1,1,89.6026,6.8895l-8.2546,107.3574A44.98545,44.98545,0,0,1,355.5127,307.2295Zm14.8456-193.0782a41.08588,41.08588,0,0,0-44.0657,37.7732L318.038,259.2819a41.04018,41.04018,0,1,0,81.8388,6.2925l8.2546-107.3574A41.08587,41.08587,0,0,0,370.3583,114.1513Z"/>
          <g>
            <circle class="cls-4" cx="368.3724" cy="139.9994" r="42.9869" transform="translate(8.89925 301.4835) rotate(-45)"/>
            <circle class="cls-5" cx="368.37245" cy="139.99937" r="22.03097" transform="translate(97.60318 426.32452) rotate(-67.40868)"/>
            <path class="cls-6" d="M378.5925,140.7852a10.25026,10.25026,0,1,1-9.4342-11.0059A10.25021,10.25021,0,0,1,378.5925,140.7852Z"/>
          </g>
          <g>
            <circle class="cls-4" cx="357.9737" cy="275.2427" r="42.9869" transform="translate(-89.77791 333.74235) rotate(-45)"/>
            <circle class="cls-5" cx="357.97372" cy="275.24275" r="22.03096" transform="translate(-37.39996 57.10654) rotate(-8.66989)"/>
            <path class="cls-6" d="M368.1938,276.0286a10.25027,10.25027,0,1,1-9.4343-11.006A10.25019,10.25019,0,0,1,368.1938,276.0286Z"/>
          </g>
        </g>
        <rect class="cls-7" width="532.3802" height="734.3175"/>
        <g>
          <path class="cls-8" d="M163.615,146.1325H462.1275c8.1174,0,8.1174-12.5877,0-12.5877H163.615c-8.1174,0-8.1174,12.5877,0,12.5877Z"/>
          <path class="cls-8" d="M69.2787,220.7147H462.1275c8.1174,0,8.1174-12.5877,0-12.5877H69.2787c-8.1174,0-8.1174,12.5877,0,12.5877Z"/>
          <path class="cls-8" d="M69.2787,295.297H462.1275c8.1174,0,8.1174-12.5878,0-12.5878H69.2787c-8.1174,0-8.1174,12.5878,0,12.5878Z"/>
          <path class="cls-8" d="M69.2787,369.8792H462.1275c8.1174,0,8.1174-12.5877,0-12.5877H69.2787c-8.1174,0-8.1174,12.5877,0,12.5877Z"/>
          <path class="cls-8" d="M69.2787,444.4614H462.1275c8.1174,0,8.1174-12.5877,0-12.5877H69.2787c-8.1174,0-8.1174,12.5877,0,12.5877Z"/>
        </g>
        <path class="cls-1" d="M78.0273,631.6624H245.9405c4.5661,0,4.5661-7.0806,0-7.0806H78.0273c-4.5661,0-4.5661,7.0806,0,7.0806Z"/>
      </g>
    </g>
  </g>
</svg>
